<svg xmlns="http://www.w3.org/2000/svg" width="400" height="560" viewBox="0 0 400 560" role="img" aria-labelledby="title desc">
  <title id="title">雨停之前</title>
  <desc id="desc">原创虚构漫画封面。赭红色雨夜里，街角的候车亭亮着暖灯，一把伞停在斑马线旁。</desc>
  <defs>
    <linearGradient id="sky" x2="0" y2="1"><stop stop-color="#502d2c"/><stop offset="1" stop-color="#a14d31"/></linearGradient>
    <linearGradient id="road" x2="0" y2="1"><stop stop-color="#562f2b"/><stop offset="1" stop-color="#252827"/></linearGradient>
    <pattern id="grain" width="6" height="7" patternUnits="userSpaceOnUse"><circle cx="1" cy="2" r=".5" fill="#fff1d3" opacity=".16"/><circle cx="4" cy="5" r=".45" fill="#211c20" opacity=".22"/></pattern>
    <pattern id="rain" width="47" height="67" patternUnits="userSpaceOnUse" patternTransform="rotate(12)"><path d="M7 5v24M31 37v12" stroke="#efd0a7" stroke-width=".7" opacity=".35"/></pattern>
  </defs>
  <rect width="400" height="560" fill="url(#sky)"/>
  <circle cx="310" cy="213" r="76" fill="#d57946" opacity=".5"/>
  <path d="M0 270h45v-35h57v53h44v-73h80v59h60v-30h64v58h50v100H0Z" fill="#713b2e"/>
  <path d="M0 325h60v-57h42v77h73v-49h59v30h55v-38h69v-72h42v212H0Z" fill="#492f2c"/>
  <g fill="#e8b478" opacity=".75"><path d="M69 281h7v14h-7zM86 281h7v14h-7zM189 309h9v15h-9zM208 309h9v15h-9zM367 237h7v20h-7zM383 237h7v20h-7z"/></g>
  <path d="M0 390 400 350v210H0Z" fill="url(#road)"/>
  <path d="m0 413 400-41M0 469l400-70" stroke="#d68754" stroke-width="2" opacity=".5"/>
  <path d="m40 533 45-27 27-4-38 27zm64-14 37-24 28-4-31 24zm65-14 30-21 28-4-24 21zm67-15 21-18 29-4-15 18z" fill="#cbb394" opacity=".65"/>
  <path d="m229 378 87-13 7 91-100 26Z" fill="#c07645" opacity=".25"/>
  <path d="M220 288h113v9H220zM228 296h4v98h-4zM324 296h4v82h-4z" fill="#222b2a"/>
  <path d="M235 300h84v70l-84 10z" fill="#e9ba75"/>
  <path d="M240 306h34v61l-34 5zM280 306h33v57l-33 4z" fill="#bd8153"/>
  <path d="M244 310h26v42h-26z" fill="#edd6a9"/>
  <path d="M249 317h16m-16 5h12m-12 5h15m-15 5h10" stroke="#9c7051" stroke-width="1.2"/>
  <path d="M234 373 320 362v5l-86 12zM239 378v13M312 369v12" stroke="#262d2a" stroke-width="3"/>
  <path d="M161 322v73q0 13-10 10q-7-2-5-10" fill="none" stroke="#f1cd8e" stroke-width="2.5"/>
  <path d="M111 329q44-56 101-8l-27-4-24 9-24-2Z" fill="#e6a650"/>
  <path d="M161 302q-17 8-24 22m24-22q19 5 24 15" fill="none" stroke="#80512f" stroke-width="1"/>
  <path d="m151 411-11 36m32-39 7 32m-43 17 55-11m-53 23 39-11" stroke="#d8914d" opacity=".42" stroke-width="2"/>
  <path d="M20 209q155 57 380 8M54 191v104M352 182v124" fill="none" stroke="#332b29" stroke-width="1.5"/>
  <rect width="400" height="560" fill="url(#rain)"/>
  <rect width="400" height="560" fill="url(#grain)"/>
  <g fill="#f6e3c6" font-family="'Noto Serif SC','Source Han Serif SC','Songti SC',SimSun,serif">
    <text x="34" y="81" font-size="45" letter-spacing="5">雨停之前</text>
    <text x="36" y="112" font-size="10" letter-spacing="3">在最后一班电车到来以前</text>
    <text x="36" y="154" font-family="Georgia,serif" font-size="13" letter-spacing="2">BEFORE THE RAIN ENDS</text>
    <text x="34" y="517" font-size="14" letter-spacing="4">林间折页</text>
  </g>
  <path d="M35 37h39M35 169h61" stroke="#eed3ad" opacity=".65"/>
  <text x="365" y="519" text-anchor="end" fill="#d6b394" font-family="Georgia,serif" font-size="28">01</text>
  <text x="35" y="539" fill="#d6b394" font-family="sans-serif" font-size="7" letter-spacing="2.7">FICTIONAL COVER / ORIGINAL ART</text>
  <rect x="15" y="15" width="370" height="530" fill="none" stroke="#e6bf96" opacity=".2"/>
</svg>
